# xmcd
#
# Track frame offsets:
#	150
#	16350
#	33825
#	52050
#	62925
#	77400
#	92925
#	105225
#	122025
#	139275
#	161850
#	173850
#	187200
#	202500
#	213825
#	232950
#	249600
#	262950
#	281325
#	298950
#	308700
#
# Disc length: 4441
#
# Revision: 1
# Processed by: cddbd v1.5.2PL0 Copyright (c) Steve Scherf et al.
# Submitted via: kJams Pro (development) 1.0patch45.20
#
DISCID=2b115715
DTITLE=Garth Brooks - Rsz 610
DYEAR=1997
DGENRE=Country
TTITLE0=Garth Brooks - Two Pina Coladas
TTITLE1=Garth Brooks - Standing Outside The Fire
TTITLE2=Garth Brooks - One Night A Day
TTITLE3=Garth Brooks - Long Neck Bottle
TTITLE4=Garth Brooks - The Night I Called The Old Man Out
TTITLE5=Garth Brooks - In Another's Eyes (Duet)
TTITLE6=Garth Brooks - She's Gonna Make It
TTITLE7=Garth Brooks - How You Ever Gonna Know
TTITLE8=Garth Brooks - You Move Me
TTITLE9=Garth Brooks - That Ol' Wind
TTITLE10=Garth Brooks - The Fever
TTITLE11=Garth Brooks - Do What You Gotta Do
TTITLE12=Garth Brooks - Where Your Road Leads (Duet)
TTITLE13=Garth Brooks - It's Midnight Cinderalla
TTITLE14=Garth Brooks - The Beaches Of Cheyenne
TTITLE15=Garth Brooks - Tearin' It Up (And Burnin' It Down}
TTITLE16=Garth Brooks - She's Every Woman
TTITLE17=Garth Brooks - It's Your Song
TTITLE18=Garth Brooks - To Make You Feel My Love
TTITLE19=Garth Brooks - Burnin' The Roadhouse Down
TTITLE20=Garth Brooks - Friends In Low Places (Live Version W/ 3rd Verse)
EXTD=
EXTT0=
EXTT1=
EXTT2=
EXTT3=
EXTT4=
EXTT5=
EXTT6=
EXTT7=
EXTT8=
EXTT9=
EXTT10=
EXTT11=
EXTT12=
EXTT13=
EXTT14=
EXTT15=
EXTT16=
EXTT17=
EXTT18=
EXTT19=
EXTT20=
PLAYORDER=
